#!OML:ASF F:\VICON\USERDATA\INSTALL\rory3\rory3.ASF
:FULLY-SPECIFIED
:DEGREES
9
root -0.4017526504125274 17.68600085905412 -31.646884362549972 5.074032192453624 -6.760543731133201 -0.5501107715101536
lfemur 6.025577640116339 0.15710203759287367 -25.457993993200105
ltibia 67.87389578007435
lfoot 38.46078194379835 -19.476488246233245
ltoes 0.8781701304754286
rfemur -38.34498997243985 -0.6084969562446472 29.045499873061463
rtibia 33.23680926309174
rfoot -0.047953947619225445 3.17045190612975
rtoes -3.051606479855661
lowerback 15.612397558394289 -0.5740272784846734 -0.11731345018455874
upperback 0.47837312474217863 -0.6632111649888053 1.42099021214894
thorax -8.24328873749409 -0.2866681884947551 1.738594296313972
lowerneck -20.316596382031825 -2.1603934193812746 -1.5594033997828665
upperneck 13.331193912080224 -2.7371824437524324 1.418247241963264
head 7.459062940110226 -1.2477624024960257 0.38886611355418166
lclavicle 1.1245392153357852e-15 -1.4766016035134605e-15
lhumerus -41.476506452797544 -13.25059916607718 94.34970976468426
lradius 110.88499996464593
lwrist 37.08319236124701
lhand -26.39341875615859 -0.21023148233327993
lfingers 7.125019999999998
lthumb 0.165783241740189 29.769401264793895
rclavicle 1.1245392153357852e-15 -1.4766016035134605e-15
rhumerus -58.57248950680041 1.3010623392396496 -90.31302169677814
rradius 101.08901070726678
rwrist -12.516103222443977
rhand -20.130392717716067 41.14569117098405
rfingers 7.125019999999998
rthumb 6.213897282452538 11.256891270618247
10
root -0.404570556752099 17.580102519704912 -31.120184574143817 4.656134476700532 -7.35018249553317 -0.8423096545471483
lfemur 4.392318516019749 1.6039244025375472 -24.370795621332423
ltibia 72.22459418928678
lfoot 39.048981637653334 -19.744887909564824
ltoes 5.145107123199557
rfemur -38.20809003915443 -0.10433691126808586 29.358799400826207
rtibia 36.80660809091883
rfoot -1.827586567814707 5.25286819017581
rtoes 6.677627432177154
lowerback 16.290194759487203 -0.5037929230874029 -0.357054752751085
upperback 0.027796800050703396 -0.5617367069128361 1.8967465348439947
thorax -9.112781085132227 -0.2062762465148869 2.38592116257753
lowerneck -18.701403788358075 -2.034924311422177 -2.4822759572053528
upperneck 13.280294118050858 -2.3757741932913623 1.5802363739518133
head 7.1808167009444475 -1.1172838074916491 0.6471250083967679
lclavicle 1.1245390911238798e-15 -1.4766016083237192e-15
lhumerus -42.8317054500921 -11.693502419294958 95.09150708106348
lradius 109.25100191490546
lwrist 36.32969312547392
lhand -25.92872040674915 -0.23478339946539595
lfingers 7.125019999999998
lthumb 0.614584590787473 29.74410135013295
rclavicle 1.1245390911238798e-15 -1.4766016083237192e-15
rhumerus -58.62578944222497 2.521879629387584 -90.27042180094544
rradius 100.77301104431324
rwrist -12.532403185332436
rhand -20.850789288656433 41.47489049640046
rfingers 7.125019999999998
rthumb 5.518380712902763 11.566690634269825
11
root -0.412628288932467 17.462704360690775 -30.59998478312634 4.301176416916572 -7.921181298993565 -1.0719927765576522
lfemur 2.8898593217763064 2.952691013841503 -23.29949722565375
ltibia 76.36769267440602
lfoot 39.23218154230197 -20.671486747281033
ltoes 7.307505092392683
rfemur -37.84749021488319 0.6982745683560427 29.566699087459757
rtibia 40.43900689819064
rfoot -4.785974772792015 2.6353828609301457
rtoes 6.635057458814886
lowerback 16.63629333030198 -0.4292246074667164 -0.5811821007402902
upperback -0.1466901119727596 -0.4710501912238958 2.2175740550437886
thorax -9.500577672152433 -0.13813714327818166 2.851478908793005
lowerneck -17.502109287619508 -1.8504256231424834 -3.094984376826223
upperneck 13.022995159234409 -2.0230359008599472 1.7092356827148358
head 6.89635054584835 -0.9741493487658237 0.8367039949416738
lclavicle 1.1245391078108152e-15 -1.476601617257007e-15
lhumerus -43.778504749559715 -10.244905445825857 95.4579057555328
lradius 107.67200379951977
lwrist 35.705693758357256
lhand -25.749121044679114 0.6219157089949556
lfingers 7.125019999999998
lthumb 0.7880259527691651 30.600198462434594
rclavicle 1.1245391078108152e-15 -1.476601617257007e-15
rhumerus -58.066490119842875 3.587977262967282 -90.51302120772948
rradius 100.40301143895628
rwrist -12.67770285451602
rhand -21.113788036792638 41.46419051832648
rfingers 7.125019999999998
rthumb 5.26449196514139 11.549490669599688
12
root -0.42158099136617716 17.339006300468892 -30.08958498817176 3.895808632674335 -7.893031357982354 -1.1810123598180668
lfemur 1.2916201788988424 3.6783091907688874 -22.204198865916187
ltibia 80.44769118259705
lfoot 38.23068206356016 -20.093587472171826
ltoes 8.140404310178875
rfemur -37.42789041936403 1.3293513729159407 29.62069900606587
rtibia 43.995905730253526
rfoot -7.322303233856992 1.2776152837894985
rtoes 8.339766392110947
lowerback 17.11929133580195 -0.4444624676154121 -0.6519628948312735
upperback -0.13119227966180458 -0.4875551030794658 2.371922862022058
thorax -9.754835434441649 -0.13481518699769673 3.0752478255183173
lowerneck -17.33311006255087 -1.8209558326622584 -3.2972105546887525
upperneck 13.104594829033951 -1.9328063376516744 1.6696658947477594
head 6.894000577611012 -0.9459706521944815 0.867413506798254
lclavicle 1.1245391783189968e-15 -1.4766016316876962e-15
lhumerus -44.37070431139402 -9.360367293877529 95.7428047248459
lradius 106.09800567816634
lwrist 35.754393708963974
lhand -26.38161879807159 0.9684475393771557
lfingers 7.125019999999998
lthumb 0.17717519983391572 30.948097288938204
rclavicle 1.1245391783189968e-15 -1.4766016316876962e-15
rhumerus -56.83019161767766 4.215625869773675 -90.89182028147133
rradius 99.94321192938023
rwrist -12.582503071265661
rhand -21.241187430376485 41.26709092221599
rfingers 7.125019999999998
rthumb 5.141442572049736 11.349491080412093
13
root -0.43747446310541355 17.264007476567183 -29.570085196873013 3.50930074534309 -7.702631756968584 -1.258702062840463
lfemur -0.5908268115602482 4.323017570977355 -21.02750062807889
ltibia 84.29278977667684
lfoot 36.22108310951184 -19.666588007780675
ltoes 6.7510456149892395
rfemur -36.79779072642638 2.1484298213469133 29.615899013300883
rtibia 47.07030472074924
rfoot -9.859431694436562 -0.26750995902203023
rtoes 10.731994895198769
lowerback 17.46838989422853 -0.3189056199615331 -0.5125983002580143
upperback 0.09317609263620918 -0.2994781075040871 2.3229432406045314
thorax -9.715935776795732 -0.05574222765899356 2.897288687025947
lowerneck -17.848307700156564 -2.002664540777718 -3.1418234915524303
upperneck 13.35819380282272 -2.1957850645996135 1.628866113371546
head 7.067758229066341 -1.0658943608540445 0.796155639478553
lclavicle 1.1245390972345904e-15 -1.4766016523029294e-15
lhumerus -44.465904240956036 -9.330517356242533 95.88600420678915
lradius 104.31400780745828
lwrist 36.16529329221436
lhand -27.083616304603623 0.6741375327353196
lfingers 7.125019999999998
lthumb -0.5008653059382766 30.653298283323764
rclavicle 1.1245390972345904e-15 -1.4766016523029294e-15
rhumerus -55.067693753028166 4.165135981846231 -91.35851914027629
rradius 99.57571232135672
rwrist -12.216603904340168
rhand -21.80638474005929 40.86469174679811
rfingers 7.125019999999998
rthumb 4.5957152637043315 10.934591932642437
14
root -0.4591867414415194 17.15210923130584 -29.0820853929196 3.19830244527319 -7.53286211272434 -1.7715801023066275
lfemur -2.863217592895751 5.070375693284422 -19.226403325309487
ltibia 88.2985883119984
lfoot 35.17978365148506 -19.76328788648471
ltoes 8.533973940559614
rfemur -36.00319111365347 3.1200779807671837 30.265598034011877
rtibia 49.6262038814987
rfoot -12.166290294734027 -3.1888067461333596
rtoes 10.039695328398064
lowerback 17.897488122303137 0.0183149850670401 0.20741260515209325
upperback 0.5955548568169348 0.2670818667840933 2.114024855415672
thorax -9.427928311536089 0.16887181624647662 2.111152492744154
lowerneck -19.46720027686436 -2.341932128705377 -2.2357306169887354
upperneck 13.681492494565262 -2.8118820821394235 1.3967973569015097
head 7.443863145553821 -1.3257115631381968 0.4878235405751936
lclavicle 1.1245390648008934e-15 -1.476601617257007e-15
lhumerus -43.74840477183055 -10.347805230838961 95.6478050685288
lradius 102.41601007281483
lwrist 36.51229294027442
lhand -28.219012271721073 1.075807177015804
lfingers 7.125019999999998
lthumb -1.5974422720896615 31.04959694657004
rclavicle 1.1245390648008934e-15 -1.476601617257007e-15
rhumerus -52.518296841744515 3.2171280861423703 -91.92631775186717
rradius 99.16021276453017
rwrist -12.017704357192088
rhand -21.427986541219987 40.262092981622125
rfingers 7.125019999999998
rthumb 4.961123461425723 10.340193153576918
